<svg id="contact-phone" xmlns="http://www.w3.org/2000/svg" viewBox="7139 2859 20 15"><defs><style>.cls-1 { fill: none; } .cls-2 { fill: #0064ff; }</style></defs><path id="Rectangle_857" data-name="Rectangle 857" class="cls-1" d="M7139 2859h20v15h-20z"/><path id="contact-phone-2" data-name="contact-phone" class="cls-2" d="M7144.715 2865.882a11.738 11.738 0 0 0 4.976 4.976l1.66-1.657a.6.6 0 0 1 .754-.15 7.887 7.887 0 0 0 2.714.452.712.712 0 0 1 .754.754v2.564a.712.712 0 0 1-.754.754 12.807 12.807 0 0 1-12.817-12.82.712.712 0 0 1 .755-.753h2.64a.712.712 0 0 1 .753.755 8.54 8.54 0 0 0 .453 2.714.93.93 0 0 1-.15.753z"/></svg>