<svg id="contact-adress" xmlns="http://www.w3.org/2000/svg" viewBox="7060 2859 20 15"><defs><style>.cls-1 { fill: none; } .cls-2 { fill: #0064ff; }</style></defs><path id="Rectangle_854" data-name="Rectangle 854" class="cls-1" d="M7060 2859h20v15h-20z"/><path id="contact-adress-2" data-name="contact-adress" class="cls-2" d="M7070.17 2859a5.175 5.175 0 0 0-5.17 5.17 5.042 5.042 0 0 0 .452 2.11 32.592 32.592 0 0 0 4.5 6.66.288.288 0 0 0 .436 0 32.608 32.608 0 0 0 4.5-6.66 5.04 5.04 0 0 0 .452-2.11 5.176 5.176 0 0 0-5.17-5.17zm0 7.854a2.685 2.685 0 1 1 2.684-2.685 2.685 2.685 0 0 1-2.685 2.684z"/></svg>