<svg xmlns="http://www.w3.org/2000/svg" viewBox="9335.627 1129 45.965 44"><defs><style>.cls-1 { fill: #0064ff; } .cls-2 { fill: #fff; }</style></defs><g id="Group_2793" data-name="Group 2793"><path id="Path_1037" data-name="Path 1037" class="cls-1" d="M9380.32 1157.027a7.773 7.773 0 0 1-2.7-3.075 14.067 14.067 0 0 0 3.968-9.662c0-8.428-7.887-15.29-17.577-15.29-8.01 0-14.786 4.69-16.893 11.076a22.04 22.04 0 0 1 4-.77c2.26-4.08 7.185-6.927 12.9-6.927 7.83 0 14.208 5.342 14.208 11.91a11.182 11.182 0 0 1-4.926 9.007 16.58 16.58 0 0 1 .53 3.958 12 12 0 0 0 6.283.76.537.537 0 0 0 .208-.988z"/><path id="Path_1038" data-name="Path 1038" class="cls-1" d="M9353.413 1141.822c-9.823 0-17.786 6.976-17.786 15.594a14.36 14.36 0 0 0 3.958 9.795 7.26 7.26 0 0 1-2.81 3.627.485.485 0 0 0 .19.892 10.484 10.484 0 0 0 6.8-1.235 19.485 19.485 0 0 0 9.663 2.506c9.823 0 17.786-6.975 17.786-15.593-.024-8.6-7.987-15.585-17.8-15.585z"/><g id="Group_2792" data-name="Group 2792" transform="translate(8643 191)"><circle id="Ellipse_298" data-name="Ellipse 298" class="cls-2" cx="2.5" cy="2.5" r="2.5" transform="translate(708 957)"/><rect id="Rectangle_736" data-name="Rectangle 736" class="cls-2" width="5" height="13" rx="2" transform="translate(708 963)"/></g></g></svg>