<svg xmlns="http://www.w3.org/2000/svg" viewBox="12984 229 199.999 51.111">
  <defs>
    <style>
      .cls-1 {
        fill: #002969;
        fill-rule: evenodd;
      }

      .cls-2 {
        fill: #1f1a17;
      }
    </style>
  </defs>
  <g id="Group_8827" data-name="Group 8827" transform="translate(12915 150)">
    <path id="Path_2060" data-name="Path 2060" class="cls-1" d="M27.1,30.667v6.667H19.756V30.667a6.033,6.033,0,0,0-2.444,5.067,6.167,6.167,0,0,0,12.333-.067,5.844,5.844,0,0,0-2.556-5.033M37.222,33c4.9-11.778-2.778-23.3-13.889-23.133C12.456,10.278,4.811,21.211,9.744,32.989c-5.3-22.811,30.889-27.222,27.489.044ZM35,33.778c3.844-8.044-3.178-18.122-11.111-17.589-9.144-.844-16.156,10.178-11.844,17.567C10,25.389,17.3,18.889,24.256,19.433c5.422.467,11.9,4.856,10.756,14.378Zm-2.6,1.556c3.622-6.389-2.222-14.267-8.378-13.856-7.044-.656-13.611,7.478-9.411,13.9a9.056,9.056,0,0,1,9.578-11.3c4.189.367,9.144,3.956,8.222,11.278Zm-16.233.533c-1.4-5.333,1.111-9.722,7.422-10,6.322.356,8.656,5.344,7.156,10-.411-4.622-2.944-7.356-6.822-7.778-4.689-.144-7.478,3.278-7.744,7.811ZM0,14.967,23.478,0,47.033,14.989H37.778c5.344,7.911,3.522,15.556,0,20.456h9.167L23.5,51.111.122,35.433H9.233c-4-5.556-5.011-12.8,0-20.433Z" transform="translate(69 79)"/>
    <path id="Union_2" data-name="Union 2" class="cls-2" d="M-12831.3-122.856l-.256-.266-.233-.3v3.546l-.8.01v-5.309l3.244,3.121.266.279.288.344v-3.546h.823v5.3Zm-14.88,0-.256-.266-.233-.3v3.546l-.742.01v-5.309l3.244,3.121.266.279.288.344v-3.546h.769v5.3Zm-41.575,0-.257-.266-.233-.3v3.546l-.833.01v-5.309l3.332,3.121.267.279.291.344v-3.546h.766v5.3Zm-10.557,0-.257-.266-.233-.3v3.546l-.732.01v-5.309l3.245,3.121.266.279.278.288v-3.491h.765v5.3Zm-11.666,0-.21-.266-.233-.3v3.546l-.769.01v-5.309l3.222,3.121.266.279.289.344v-3.546h.768v5.3Zm89.877,2.911a2.732,2.732,0,0,1-.889-.577,2.641,2.641,0,0,1-.59-.865,2.655,2.655,0,0,1,.59-2.933,2.741,2.741,0,0,1,.889-.58,2.749,2.749,0,0,1,1.043-.2,2.77,2.77,0,0,1,1.048.2,2.707,2.707,0,0,1,1.475,1.455,2.583,2.583,0,0,1,.2,1.024l.01.01a2.594,2.594,0,0,1-.8,1.89,2.859,2.859,0,0,1-.888.577,2.776,2.776,0,0,1-1.038.2h-.024A2.727,2.727,0,0,1-12820.105-119.945Zm-.289-3.831a1.91,1.91,0,0,0-.4.609,2.024,2.024,0,0,0-.143.745,1.969,1.969,0,0,0,.143.733,1.961,1.961,0,0,0,.4.613,1.828,1.828,0,0,0,2.032.408,1.844,1.844,0,0,0,.6-.408,1.886,1.886,0,0,0,.412-.622,1.929,1.929,0,0,0,.155-.713l-.01-.01a1.892,1.892,0,0,0-.146-.733,1.853,1.853,0,0,0-.412-.622,1.728,1.728,0,0,0-.6-.412,1.811,1.811,0,0,0-.715-.147A1.836,1.836,0,0,0-12820.395-123.777Zm-56.332,3.821a2.756,2.756,0,0,1-.892-.577,2.6,2.6,0,0,1-.587-.869,2.656,2.656,0,0,1,.587-2.933,2.7,2.7,0,0,1,.892-.577,2.863,2.863,0,0,1,2.087,0,2.7,2.7,0,0,1,1.479,1.455,2.689,2.689,0,0,1,.379,1.044l-.169-.01a2.6,2.6,0,0,1-.8,1.89,2.826,2.826,0,0,1-.888.577,2.745,2.745,0,0,1-1.034.2A2.787,2.787,0,0,1-12876.727-119.955Zm-.279-3.821a1.91,1.91,0,0,0-.4.609,2,2,0,0,0-.143.745,1.95,1.95,0,0,0,.143.733,1.961,1.961,0,0,0,.4.613,1.828,1.828,0,0,0,2.032.408,1.764,1.764,0,0,0,.6-.408,1.9,1.9,0,0,0,.412-.622,1.916,1.916,0,0,0,.311-.713l-.165-.01a1.892,1.892,0,0,0-.146-.733,1.868,1.868,0,0,0-.412-.622,1.728,1.728,0,0,0-.6-.412,1.819,1.819,0,0,0-.716-.147A1.836,1.836,0,0,0-12877.006-123.777Zm-28.212,3.643a1.4,1.4,0,0,1-.531-.755l.664-.311a.912.912,0,0,0,.348.522,1.121,1.121,0,0,0,.642.178.824.824,0,0,0,.59-.211.726.726,0,0,0,.224-.545c0-.3-.25-.564-.746-.8l-.155-.078a3.574,3.574,0,0,1-1.111-.745,1.2,1.2,0,0,1-.275-.81,1.3,1.3,0,0,1,.421-1.011,1.565,1.565,0,0,1,1.111-.389,1.881,1.881,0,0,1,.943.224,1.111,1.111,0,0,1,.522.622l-.646.331a1.112,1.112,0,0,0-.334-.353.74.74,0,0,0-.421-.11.772.772,0,0,0-.532.175.587.587,0,0,0-.2.467q0,.457.865.856h.1a3.151,3.151,0,0,1,1.043.677,1.245,1.245,0,0,1,.279.836,1.488,1.488,0,0,1-.457,1.109,1.732,1.732,0,0,1-1.231.425c-.035,0-.071,0-.106,0A1.8,1.8,0,0,1-12905.218-120.133Zm79.68.266h-1.322v-5.111h1.111a7.372,7.372,0,0,1,1.533.113,2.046,2.046,0,0,1,.774.366,2.133,2.133,0,0,1,.668.865,2.985,2.985,0,0,1,.233,1.212,2.97,2.97,0,0,1-.233,1.209,2.218,2.218,0,0,1-.668.869,2.082,2.082,0,0,1-.765.366,5.773,5.773,0,0,1-1.133.114Q-12825.438-119.864-12825.538-119.868Zm-.489-.742h.7a3.877,3.877,0,0,0,.865-.078,1.305,1.305,0,0,0,.5-.256,1.52,1.52,0,0,0,.435-.613,2.585,2.585,0,0,0,0-1.711,1.509,1.509,0,0,0-.435-.609,1.309,1.309,0,0,0-.521-.256,4.187,4.187,0,0,0-.943-.078h-.6Zm-14.333.742h-1.322v-5.111h1.111a7.367,7.367,0,0,1,1.533.113,2.057,2.057,0,0,1,.775.366,2.131,2.131,0,0,1,.667.865,2.985,2.985,0,0,1,.233,1.212,2.97,2.97,0,0,1-.233,1.209,2.225,2.225,0,0,1-.667.869,2.093,2.093,0,0,1-.766.366,5.773,5.773,0,0,1-1.133.114Q-12840.261-119.864-12840.36-119.868Zm-.489-.742h.7a3.872,3.872,0,0,0,.865-.078,1.305,1.305,0,0,0,.5-.256,1.52,1.52,0,0,0,.435-.613,2.585,2.585,0,0,0,0-1.711,1.531,1.531,0,0,0-.432-.609,1.34,1.34,0,0,0-.524-.256,4.187,4.187,0,0,0-.943-.078h-.6Zm-41.135.742h-1.322v-5.111h1.111a7.367,7.367,0,0,1,1.533.113,2.049,2.049,0,0,1,.778.366,2.133,2.133,0,0,1,.668.865,3.069,3.069,0,0,1,.233,1.212,3.053,3.053,0,0,1-.233,1.209,2.227,2.227,0,0,1-.668.869,2.112,2.112,0,0,1-.765.366,5.842,5.842,0,0,1-1.137.114Q-12881.885-119.864-12881.984-119.868Zm-.489-.742h.7a3.9,3.9,0,0,0,.868-.078,1.327,1.327,0,0,0,.5-.256,1.539,1.539,0,0,0,.435-.613,2.622,2.622,0,0,0,0-1.711,1.528,1.528,0,0,0-.435-.609,1.309,1.309,0,0,0-.521-.256,4.213,4.213,0,0,0-.946-.078h-.545Zm46.081-4.369h2.865v.7h-2.022V-123h2.022v.733h-2.022v1.643h2.022v.745l-2.865.01Zm-5.312,5.111h.022Zm-9.514-5.111h2.846v.7h-2.022V-123h2.022v.733h-2.022v1.643h2.022v.745l-2.846.01Zm-4,5.111v-5.111h1.111a3.568,3.568,0,0,1,.788.068,1.207,1.207,0,0,1,.479.224,1.238,1.238,0,0,1,.366.476,1.574,1.574,0,0,1,.133.645,1.436,1.436,0,0,1-.3.956,1.317,1.317,0,0,1-.879.408l1.754,2.324h-.931l-1.7-2.288-.046.01v2.288Zm.777-2.933h.146a1.646,1.646,0,0,0,.878-.156.626.626,0,0,0,.211-.545.688.688,0,0,0-.233-.587,1.516,1.516,0,0,0-.855-.178h-.146Zm-6.077,2.924-.577-1.313h-1.857l-.576,1.322h-.889l2.467-5.309,2.467,5.309Zm-1.666-3.377-.1.266-.521,1.112h1.423l-.521-1.112-.091-.256a1.359,1.359,0,0,0-.1-.321A1.042,1.042,0,0,1-12862.184-123.255Zm-28.257,3.387-.577-1.309H-12893l-.59,1.309h-.865l2.467-5.309,2.467,5.309Zm-1.666-3.377-.1.266-.521,1.112h1.423l-.522-1.112-.087-.253a1.593,1.593,0,0,0-.1-.324A.967.967,0,0,1-12892.106-123.245Zm-9.455-1.734h.833v5.1l-.833.01Zm-13.435,0h2.846v.7h-2.01V-123h2.02v.733h-2.02v1.643h2.02v.745l-2.855.01Zm55.924,5.1v-5.1h1.255a3.9,3.9,0,0,1,.823.058,1.3,1.3,0,0,1,.454.2,1.2,1.2,0,0,1,.379.48,1.616,1.616,0,0,1,.133.664,1.631,1.631,0,0,1-.133.668,1.1,1.1,0,0,1-.379.476,1.247,1.247,0,0,1-.454.2,4.123,4.123,0,0,1-.823.055h-.477v2.3Zm.778-2.966h.32a1.921,1.921,0,0,0,.924-.146.58.58,0,0,0,.233-.535.653.653,0,0,0-.246-.577,1.692,1.692,0,0,0-.9-.165h-.21Zm-11.545,2.966v-5.1h2.979v.7h-1.99V-123h1.99v.733h-1.99v1.643h1.99v.745Zm53.545-9.733a3.6,3.6,0,0,1-1.18-.778,3.5,3.5,0,0,1-.8-1.112,3.492,3.492,0,0,1,.8-3.9,3.547,3.547,0,0,1,1.18-.778,3.733,3.733,0,0,1,2.787,0,3.577,3.577,0,0,1,1.189.778,3.484,3.484,0,0,1,1.057,2.505,3.484,3.484,0,0,1-1.057,2.505,3.744,3.744,0,0,1-1.189.778,3.708,3.708,0,0,1-1.395.272A3.69,3.69,0,0,1-12816.294-129.611Zm1.4-1.3a1.64,1.64,0,0,0,1.28-.567,2.227,2.227,0,0,0,0-2.856,1.709,1.709,0,0,0-1.273-.574,1.7,1.7,0,0,0-1.271.574,2.3,2.3,0,0,0,0,2.865,1.627,1.627,0,0,0,1.254.557Zm-98.553,1.365a2.12,2.12,0,0,1-.956-.622,2.253,2.253,0,0,1-.457-.911,7.224,7.224,0,0,1-.133-1.653v-3.6l.059-.013h1.854v4.379a1.918,1.918,0,0,0,.123.535.762.762,0,0,0,.366.4,1.589,1.589,0,0,0,1.287,0,.794.794,0,0,0,.379-.4,1.989,1.989,0,0,0,.123-.535v-4.379h1.845v3.6a7.386,7.386,0,0,1-.123,1.666,2.193,2.193,0,0,1-.457.911,2.07,2.07,0,0,1-.953.622,5.391,5.391,0,0,1-1.479.207A5.385,5.385,0,0,1-12913.45-129.546Zm37.644.123a3.367,3.367,0,0,1-1.3-.243,3.66,3.66,0,0,1-1.111-.755l.855-1.322a3.341,3.341,0,0,0,.823.7,1.61,1.61,0,0,0,.8.233.941.941,0,0,0,.612-.2.635.635,0,0,0,.246-.512.67.67,0,0,0-.214-.522,2.618,2.618,0,0,0-.931-.376,3.1,3.1,0,0,1-1.413-.7,1.64,1.64,0,0,1-.531-1.167,2.1,2.1,0,0,1,.7-1.647,2.372,2.372,0,0,1,1.691-.609,3.707,3.707,0,0,1,1.112.156,3.563,3.563,0,0,1,.942.454l-.58,1.335a2.422,2.422,0,0,0-.642-.412,1.7,1.7,0,0,0-.658-.133.883.883,0,0,0-.544.156.5.5,0,0,0-.211.412.5.5,0,0,0,.191.408,2.006,2.006,0,0,0,.71.292h.087a3.4,3.4,0,0,1,1.491.677,1.672,1.672,0,0,1,.366.6,2.331,2.331,0,0,1,.123.778,2.225,2.225,0,0,1-.713,1.744,2.68,2.68,0,0,1-1.761.658C-12875.714-129.419-12875.76-129.42-12875.807-129.423Zm-26.834-.088-2.577-3.533a3.794,3.794,0,0,1-.243-.434c-.113-.211-.233-.467-.369-.755a3.244,3.244,0,0,0,.078.755v3.922l-1.722.01v-6.787h1.722l2.566,3.5a3.469,3.469,0,0,0,.247.431c.109.224.233.467.376.768,0-.279-.065-.535-.078-.755s0-.412,0-.59v-3.332h1.779v6.8Zm131.711-.013-.344-1.222h-2.632l-.356,1.222h-1.877l2.344-6.8h2.32l2.39,6.8Zm-1.8-5.209-.123.431-.678,2.233h1.845l-.687-2.22a.6.6,0,0,0-.091-.334l-.143-.59Zm-9.743,5.209,3.387-5.3h-2.755v-1.51h5.725l-3.427,5.322h3.034l.045,1.488Zm-4.69-6.81h4.169v1.51h-2.356v1.112h2.22v1.455h-2.22v1.112h2.356v1.52l-4.169.1Zm-5.065,0h1.854v5.212h2.3v1.588l-4.155.01Zm-2.521,6.81-.348-1.222h-2.632l-.356,1.222h-1.821l2.344-6.8h2.323l2.356,6.8Zm-1.757-5.209-.124.431-.677,2.233h1.844l-.69-2.22a.618.618,0,0,0-.087-.334l-.143-.59Zm-6.5,5.209v-5.2h-1.521v-1.611h4.9v1.611h-1.523v5.2Zm-3.854,0-1.565-2.664v2.664h-1.669v-6.81h1.935a7.9,7.9,0,0,1,1.589.1,2.019,2.019,0,0,1,.777.353,1.835,1.835,0,0,1,.567.713,2.262,2.262,0,0,1,.2.956,2.039,2.039,0,0,1-.389,1.287,1.908,1.908,0,0,1-1.112.658l1.854,2.742Zm-1.487-3.588h.376a1.463,1.463,0,0,0,.878-.2.743.743,0,0,0,.279-.642.911.911,0,0,0-.256-.736,1.365,1.365,0,0,0-.866-.211h-.369Zm-15.078-3.222h4.165v1.51h-2.354v1.112h2.221v1.455h-2.221v2.677l-1.812.055Zm-8.379,0h4.168v1.51H-12830v1.112h2.221v1.455H-12830v1.112h2.356v1.52l-4.168.1Zm-7.276,0h1.42a11.579,11.579,0,0,1,2.223.143,3.279,3.279,0,0,1,1.112.5,2.915,2.915,0,0,1,.979,1.112,4.029,4.029,0,0,1,0,3.209,2.915,2.915,0,0,1-.979,1.112,3.19,3.19,0,0,1-1.112.489,9.3,9.3,0,0,1-1.967.143h-1.676v-6.709Zm1.821,5.29h.312a2.372,2.372,0,0,0,1.6-.444,1.834,1.834,0,0,0,.5-1.423,1.848,1.848,0,0,0-.5-1.433,2.343,2.343,0,0,0-1.6-.457h-.312Zm-10.2-5.29h4.168v1.51h-2.356v1.112h2.221v1.455h-2.221v1.112h2.356v1.52l-4.168.1Zm-7.345,6.709h.056v.1Zm-2.443.1-.347-1.222h-2.655l-.354,1.222h-1.824l2.347-6.8h2.32l2.356,6.8Zm-1.767-5.209-.123.431-.69,2.233h1.856l-.689-2.22a.612.612,0,0,0-.088-.334l-.146-.59Zm-9.757,5.108h.023v.1Zm-3.312-6.709h1.88v6.8l-1.88.01Zm-8.443,6.81-1.556-2.664v2.664l-1.688-.023v-6.787h1.944a7.9,7.9,0,0,1,1.589.1,2.012,2.012,0,0,1,.777.353,1.835,1.835,0,0,1,.567.713,2.247,2.247,0,0,1,.2.956,2.039,2.039,0,0,1-.389,1.287,1.908,1.908,0,0,1-1.112.658l1.854,2.742Zm-1.5-3.611h.343a1.459,1.459,0,0,0,.879-.2.732.732,0,0,0,.278-.642.908.908,0,0,0-.256-.736,1.356,1.356,0,0,0-.865-.211h-.366Zm-11.967,3.588-2.865-6.787h1.967l1.365,3.812.077.288.156.622.146-.567a.789.789,0,0,1,.1-.344l1.354-3.812h1.968l-2.855,6.8Zm-5.322,0v-6.787h1.88v6.8Zm10.145-6.787h4.165v1.51h-2.408v1.112h2.221v1.455h-2.221v1.112h2.354v1.52l-4.11.078Zm36.1,6.709h-1.679v-6.709h1.423a11.625,11.625,0,0,1,2.224.143,3.277,3.277,0,0,1,1.108.5,2.923,2.923,0,0,1,.979,1.112,4.029,4.029,0,0,1,0,3.209,2.891,2.891,0,0,1-.979,1.112,3.22,3.22,0,0,1-1.108.489,9.37,9.37,0,0,1-1.652.148C-12852.862-129.618-12852.968-129.62-12853.072-129.624Zm.155-1.42h.312a2.364,2.364,0,0,0,1.6-.444,1.83,1.83,0,0,0,.5-1.423,1.843,1.843,0,0,0-.5-1.433,2.331,2.331,0,0,0-1.6-.457h-.312Zm-14.157,1.42h-1.676v-6.709h1.419a11.585,11.585,0,0,1,2.224.143,3.279,3.279,0,0,1,1.112.5,2.915,2.915,0,0,1,.979,1.112,4.029,4.029,0,0,1,0,3.209,2.915,2.915,0,0,1-.979,1.112,3.19,3.19,0,0,1-1.112.489,9.3,9.3,0,0,1-1.65.148Q-12866.916-129.618-12867.074-129.624Zm.155-1.42h.312a2.368,2.368,0,0,0,1.6-.444,1.809,1.809,0,0,0,.5-1.423,1.826,1.826,0,0,0-.5-1.433,2.34,2.34,0,0,0-1.624-.48h-.308Zm55.658-1.851v0Zm-66.436-5.841a5.717,5.717,0,0,1-.732-.165v-.645a6.454,6.454,0,0,0,.7.156,3.317,3.317,0,0,0,.567,0,.441.441,0,0,0,.3-.078.305.305,0,0,0,.1-.256.228.228,0,0,0-.133-.22.937.937,0,0,0-.421-.068h-.257v-.789a3.876,3.876,0,0,1-.567-.108,2.967,2.967,0,0,1-.865-.4,3.421,3.421,0,0,1-1.189-1.287,3.789,3.789,0,0,1-.4-1.747,3.841,3.841,0,0,1,.256-1.42,3.438,3.438,0,0,1,.768-1.112,3.2,3.2,0,0,1,1.112-.745,3.518,3.518,0,0,1,1.354-.243,3.672,3.672,0,0,1,.879.11,4.442,4.442,0,0,1,.888.266v2.023a2.848,2.848,0,0,0-.755-.622,1.726,1.726,0,0,0-.811-.2,1.673,1.673,0,0,0-1.3.545,2.05,2.05,0,0,0-.5,1.423,1.9,1.9,0,0,0,.5,1.355,1.656,1.656,0,0,0,1.287.545,1.722,1.722,0,0,0,.811-.2,2.815,2.815,0,0,0,.758-.622v2.032a4.548,4.548,0,0,1-.878.321,3.644,3.644,0,0,1-.813.112v.167h.091a1.184,1.184,0,0,1,.787.233.823.823,0,0,1,.279.668.884.884,0,0,1-.312.723,1.329,1.329,0,0,1-.879.253q-.155.012-.311.012C-12877.488-138.723-12877.593-138.727-12877.7-138.735Zm64.437-1.41-.724-.956a2.376,2.376,0,0,1-.657.233,3.577,3.577,0,0,1-.788.078,3.914,3.914,0,0,1-1.111-.156,3.6,3.6,0,0,1-.989-.454,3.519,3.519,0,0,1-1.111-1.267,3.556,3.556,0,0,1-.412-1.679,3.464,3.464,0,0,1,.279-1.365,3.484,3.484,0,0,1,.8-1.112,3.6,3.6,0,0,1,1.167-.768,3.8,3.8,0,0,1,2.787,0,3.653,3.653,0,0,1,1.18.768,3.544,3.544,0,0,1,.788,1.112,3.463,3.463,0,0,1,.278,1.365,3.594,3.594,0,0,1-.278,1.413,3.192,3.192,0,0,1-.824,1.108l1.19,1.679Zm-3.491-5.679a2.086,2.086,0,0,0-.512,1.436,2.1,2.1,0,0,0,.512,1.442,1.651,1.651,0,0,0,1.29.567h.221l.246-.078-.97-1.254h1.6l.356.467a1.936,1.936,0,0,0,.221-.512,2.36,2.36,0,0,0-.422-2.068,1.689,1.689,0,0,0-1.271-.577A1.692,1.692,0,0,0-12816.751-145.823Zm7.61,4.855a2.111,2.111,0,0,1-.953-.622,2.193,2.193,0,0,1-.457-.911,7.279,7.279,0,0,1-.133-1.653v-3.591h1.831v4.379a2.028,2.028,0,0,0,.124.535.782.782,0,0,0,.366.4,1.6,1.6,0,0,0,1.29,0,.792.792,0,0,0,.376-.4,1.952,1.952,0,0,0,.123-.535v-4.379h1.935v3.591a7.226,7.226,0,0,1-.136,1.653,2.176,2.176,0,0,1-.454.911,2.094,2.094,0,0,1-.956.622,5.391,5.391,0,0,1-1.479.207A5.39,5.39,0,0,1-12809.141-140.968Zm-99.211,0a2.13,2.13,0,0,1-.956-.622,2.268,2.268,0,0,1-.454-.911,7.224,7.224,0,0,1-.133-1.653v-3.6l.068.01h1.854v4.379a1.952,1.952,0,0,0,.123.535.762.762,0,0,0,.366.4,1.589,1.589,0,0,0,1.287,0,.794.794,0,0,0,.379-.4,2.149,2.149,0,0,0,.123-.535v-4.379h1.845v3.591a7.281,7.281,0,0,1-.136,1.653,2.176,2.176,0,0,1-.454.911,2.094,2.094,0,0,1-.956.622,5.391,5.391,0,0,1-1.479.207A5.385,5.385,0,0,1-12908.352-140.968Zm121.955-.1a3.615,3.615,0,0,1-1.177-.778,3.535,3.535,0,0,1-.8-1.112,3.492,3.492,0,0,1,.8-3.9,3.564,3.564,0,0,1,1.177-.778,3.71,3.71,0,0,1,2.79,0,3.607,3.607,0,0,1,1.189.778,3.468,3.468,0,0,1,1.054,2.522,3.456,3.456,0,0,1-.266,1.378,3.5,3.5,0,0,1-.788,1.112,3.8,3.8,0,0,1-1.189.778,3.737,3.737,0,0,1-1.395.27A3.738,3.738,0,0,1-12786.4-141.065Zm.136-4.69a2.3,2.3,0,0,0,0,2.865,1.626,1.626,0,0,0,1.271.558,1.644,1.644,0,0,0,1.274-.567,2.23,2.23,0,0,0,0-2.856,1.712,1.712,0,0,0-1.274-.574A1.7,1.7,0,0,0-12786.261-145.755Zm-79.213,4.667a3.6,3.6,0,0,1-1.177-.778,3.481,3.481,0,0,1-.8-1.112,3.485,3.485,0,0,1,.8-3.9,3.544,3.544,0,0,1,1.177-.778,3.736,3.736,0,0,1,2.788,0,3.558,3.558,0,0,1,1.189.778,3.473,3.473,0,0,1,1.057,2.512,3.46,3.46,0,0,1-1.057,2.5,3.756,3.756,0,0,1-1.189.778,3.694,3.694,0,0,1-1.393.272A3.712,3.712,0,0,1-12865.474-141.088Zm.133-4.722a2.3,2.3,0,0,0,0,2.865,1.636,1.636,0,0,0,1.28.613l-.013-.055a1.642,1.642,0,0,0,1.277-.567,2.22,2.22,0,0,0,0-2.856,1.688,1.688,0,0,0-1.271-.574A1.7,1.7,0,0,0-12865.341-145.811Zm23.678,4.966a3.378,3.378,0,0,1-1.3-.243,3.75,3.75,0,0,1-1.112-.755l.769-1.358a3.225,3.225,0,0,0,.823.7,1.546,1.546,0,0,0,.8.233.921.921,0,0,0,.612-.2.637.637,0,0,0,.246-.512.662.662,0,0,0-.214-.522,2.627,2.627,0,0,0-.93-.379,3.065,3.065,0,0,1-1.414-.7,1.639,1.639,0,0,1-.411-1.186,2.1,2.1,0,0,1,.654-1.591,2.374,2.374,0,0,1,1.689-.609,3.671,3.671,0,0,1,1.111.156,3.452,3.452,0,0,1,.956.454l-.577,1.335a2.391,2.391,0,0,0-.645-.412,1.693,1.693,0,0,0-.655-.133.875.875,0,0,0-.544.156.494.494,0,0,0-.211.412.493.493,0,0,0,.188.408,1.966,1.966,0,0,0,.709.288h.091a3.446,3.446,0,0,1,1.488.681,1.645,1.645,0,0,1,.366.6,2.191,2.191,0,0,1,.123.778,2.226,2.226,0,0,1-.71,1.744,2.682,2.682,0,0,1-1.764.658C-12841.57-140.841-12841.617-140.843-12841.663-140.845Zm5.546-.279a3.525,3.525,0,0,1-1.177-.778,3.384,3.384,0,0,1-.8-1.109,3.492,3.492,0,0,1,.8-3.9,3.574,3.574,0,0,1,1.177-.778,3.741,3.741,0,0,1,2.79,0,3.646,3.646,0,0,1,1.187.778,3.478,3.478,0,0,1,1.057,2.525,3.591,3.591,0,0,1-.266,1.378,3.478,3.478,0,0,1-.791,1.109,3.688,3.688,0,0,1-1.187.778,3.708,3.708,0,0,1-1.395.272A3.709,3.709,0,0,1-12836.117-141.124Zm.133-4.687a2.3,2.3,0,0,0,0,2.865,1.634,1.634,0,0,0,1.268.613v-.055a1.64,1.64,0,0,0,1.276-.567,2.218,2.218,0,0,0,0-2.856,1.686,1.686,0,0,0-1.271-.574A1.7,1.7,0,0,0-12835.984-145.811Zm10.968,4.878-2.566-3.514a4.478,4.478,0,0,1-.247-.431c-.109-.211-.232-.467-.366-.755a3.264,3.264,0,0,0,.078.755v3.922l-1.8-.045v-6.755h1.789l2.567,3.5a3.812,3.812,0,0,0,.243.431c.11.224.233.467.379.768,0-.279-.068-.535-.078-.755s0-.412,0-.59v-3.332h1.776v6.8Zm-72.513,0-2.554-3.523a4.53,4.53,0,0,1-.247-.434c-.109-.211-.233-.467-.366-.755a3.244,3.244,0,0,0,.078.755v3.922l-1.744.023v-6.81h1.789l2.6,3.5a3.469,3.469,0,0,0,.247.431c.109.224.233.467.376.768,0-.279-.065-.535-.078-.755s0-.412,0-.59v-3.332h1.679v6.8Zm116.633-.013,3.436-5.332h-2.735v-1.478h5.733l-3.423,5.322h3.034l-.032,1.488Zm-10.288,0-1.565-2.664v2.664h-1.711v-6.81h1.932a7.893,7.893,0,0,1,1.588.1,2.023,2.023,0,0,1,.778.353,1.852,1.852,0,0,1,.567.713,2.262,2.262,0,0,1,.2.956,2.04,2.04,0,0,1-.39,1.287,1.893,1.893,0,0,1-1.111.658l1.812,2.742Zm-1.532-3.588h.343a1.488,1.488,0,0,0,.879-.2.742.742,0,0,0,.278-.642.908.908,0,0,0-.256-.736,1.365,1.365,0,0,0-.868-.211h-.366Zm-5.079-3.222h1.88v6.8l-1.88.01Zm-5.442,0h4.155v1.488h-2.356v1.18h2.221v1.455h-2.221v1.112h2.356V-141l-4.155.055Zm-66.679,6.81-.344-1.222h-2.635l-.356,1.222h-1.842l2.344-6.8h2.334l2.353,6.8Zm-1.779-5.209-.12.431-.678,2.233h1.845l-.69-2.22a.612.612,0,0,0-.088-.334l-.146-.59Zm-11.065,5.209-.344-1.222h-2.646l-.356,1.222h-1.866l2.347-6.8h2.32l2.356,6.8Zm-1.812-5.209-.12.431-.681,2.233h1.848l-.69-2.22a.6.6,0,0,0-.091-.334l-.143-.59Zm-9.7,5.108h.023v.1Zm-20.686-6.709h4.165v1.488h-2.376v1.18h2.221v1.455h-2.221v2.677l-1.789.01Zm64.021,6.709h.045V-141Zm-5.354.045v-6.755h4.165v1.488h-2.356v1.18h2.224v1.455h-2.224v1.112h2.356V-141Zm7.088-.045h-1.688v-6.709h1.423a11.593,11.593,0,0,1,2.221.143,3.258,3.258,0,0,1,1.111.5,2.926,2.926,0,0,1,.979,1.112,4.037,4.037,0,0,1,0,3.209,2.926,2.926,0,0,1-.979,1.112,3.194,3.194,0,0,1-1.111.489,9.66,9.66,0,0,1-1.673.147C-12849.018-141.042-12849.111-141.043-12849.206-141.046Zm.144-1.475h.311a2.357,2.357,0,0,0,1.6-.447,1.816,1.816,0,0,0,.5-1.42,1.852,1.852,0,0,0-.5-1.436,2.323,2.323,0,0,0-1.6-.454h-.33Zm-43.5,1.475h-1.691v-6.709h1.423a11.593,11.593,0,0,1,2.223.143,3.279,3.279,0,0,1,1.112.5,2.884,2.884,0,0,1,.976,1.112,4,4,0,0,1,0,3.209,2.884,2.884,0,0,1-.976,1.112,3.19,3.19,0,0,1-1.112.489,9.643,9.643,0,0,1-1.673.147Q-12892.42-141.042-12892.561-141.046Zm.143-1.42h.312a2.372,2.372,0,0,0,1.6-.444,1.839,1.839,0,0,0,.5-1.423,1.852,1.852,0,0,0-.5-1.433,2.343,2.343,0,0,0-1.6-.457h-.312Zm107.421.133h0Zm-75.442-2.033v0Zm49.733-3.38.022-.01v.01Zm-62.41-.875a1.973,1.973,0,0,1,.376-.878.776.776,0,0,1,.622-.288h.179l.243.055.443.12h.27a.357.357,0,0,0,.256-.1.615.615,0,0,0,.155-.292l.532.036a2.063,2.063,0,0,1-.39.878.811.811,0,0,1-.632.275h-.356l-.421-.12-.3-.068a.384.384,0,0,0-.256.088.66.66,0,0,0-.165.292Z" transform="translate(13038.084 239.378)"/>
  </g>
</svg>
